# xmcd
#
# Track frame offsets:
#	150
#	22374
#	44399
#	67029
#	92836
#	114909
#	132984
#	157125
#	179104
#	204600
#	225514
#	247327
#	268047
#	285951
#	310686
#
# Disc length: 4412 seconds
#
# Revision: 1
# Processed by: cddbd v1.5.1PL2 Copyright (c) Steve Scherf et al.
# Submitted via: audiograbber 1.83.01
#
DISCID=e3113a0f
DTITLE=J.K.Rowling - Harry Potter og Føniksorderen CD 22
DYEAR=2003
DGENRE=Lysbok/Fantasy
TTITLE0=Harry Potter og Føniksorderen CD 22 Spor 2201
TTITLE1=Harry Potter og Føniksorderen CD 22 Spor 2202
TTITLE2=Harry Potter og Føniksorderen CD 22 Spor 2203
TTITLE3=Harry Potter og Føniksorderen CD 22 Spor 2204
TTITLE4=Harry Potter og Føniksorderen CD 22 Spor 2205
TTITLE5=Harry Potter og Føniksorderen CD 22 Spor 2206
TTITLE6=Harry Potter og Føniksorderen CD 22 Spor 2207
TTITLE7=Harry Potter og Føniksorderen CD 22 Spor 2208
TTITLE8=Harry Potter og Føniksorderen CD 22 Spor 2209
TTITLE9=Harry Potter og Føniksorderen CD 22 Spor 2210
TTITLE10=Harry Potter og Føniksorderen CD 22 Spor 2211
TTITLE11=Harry Potter og Føniksorderen CD 22 Spor 2212
TTITLE12=Harry Potter og Føniksorderen CD 22 Spor 2213
TTITLE13=Harry Potter og Føniksorderen CD 22 Spor 2214
TTITLE14=Harry Potter og Føniksorderen CD 22 Spor 2215
EXTD=
EXTT0=
EXTT1=
EXTT2=
EXTT3=
EXTT4=
EXTT5=
EXTT6=
EXTT7=
EXTT8=
EXTT9=
EXTT10=
EXTT11=
EXTT12=
EXTT13=
EXTT14=
PLAYORDER=
